<svg xmlns="http://www.w3.org/2000/svg" viewBox="0 0 512 512">
  <defs>
    <linearGradient id="g" x1="0" y1="0" x2="1" y2="1">
      <stop offset="0%" stop-color="#3b82f6"/>
      <stop offset="100%" stop-color="#06b6d4"/>
    </linearGradient>
    <radialGradient id="pulse" cx="0.5" cy="0.5" r="0.5">
      <stop offset="0%" stop-color="rgba(255,255,255,0.55)"/>
      <stop offset="100%" stop-color="rgba(255,255,255,0)"/>
    </radialGradient>
  </defs>
  <rect width="512" height="512" rx="96" fill="url(#g)"/>
  <circle cx="256" cy="256" r="160" fill="url(#pulse)"/>
  <path fill="#ffffff" d="M256 392c-13.6 0-26.4-4.8-36-14.4l-128-128c-50.4-50.4-50.4-131.2 0-181.6 48-48 126.4-48.8 175.2-1.6l7.2 7.2 7.2-7.2c48.8-47.2 127.2-46.4 175.2 1.6 50.4 50.4 50.4 131.2 0 181.6L292 377.6A45.7 45.7 0 0 1 256 392z"/>
  <path stroke="#3b82f6" stroke-width="12" stroke-linecap="round" stroke-linejoin="round" fill="none" d="M132 256 H172 L196 196 L228 316 L260 220 L292 296 L324 256 H380"/>
</svg>
